<svg xmlns="http://www.w3.org/2000/svg" viewBox="0 0 1032 1420" width="1032" height="1420">
	<style>
		tspan { white-space:pre }
		.shp0 { fill: #d4b830 } 
		.shp1 { opacity: 0.984;fill: none } 
		.shp2 { fill: #fdd83c } 
		.shp3 { fill: #2b2e34 } 
	</style>
	<g id="g5193">
		<path id="path5113" fill-rule="evenodd" class="shp0" d="M99.16 1300.04L3.96 252.04L1029.56 252.44L935.16 1299.24L515.96 1417.64L99.16 1300.04ZM937.56 345.24L517.56 345.24L520.76 1335.24L857.96 1242.84L937.56 345.24ZM376.36 476.84L375.16 1014.04L177.16 960.04L177.56 1082.84L478.36 1164.04L478.36 476.84L376.36 476.84Z" />
		<path id="path5159" class="shp1" d="M444.76 1154.04C431.56 1150.04 366.36 1132.44 299.96 1114.44L179.56 1082.04L179.56 1021.64C179.56 962.44 179.56 961.24 185.56 963.24C188.76 964.44 232.76 976.44 283.16 990.44L374.76 1015.64L375.56 747.64L376.36 479.64L476.36 479.64L476.36 820.44C476.36 1091.24 475.56 1161.24 472.76 1161.24C470.76 1160.84 457.96 1157.64 444.76 1154.04L444.76 1154.04Z" />
		<path id="path5157" class="shp1" d="M177.56 1082.84L177.16 960.04C177.16 960.04 303.56 995.64 375.16 1014.04L376.36 477.24L478.36 477.24L478.36 1164.04L177.56 1082.84L177.56 1082.84Z" />
		<path id="path5117" fill-rule="evenodd" class="shp2" d="M517.56 344.84L937.56 344.84L857.96 1242.44L517.56 1334.84L517.56 344.84ZM836.36 1092.04L863.96 756.44L659.96 779.24L659.96 600.04L877.56 599.24L886.36 476.84L557.96 478.44L562.36 924.04L760.76 890.04L757.96 989.24L557.96 1042.44L559.96 1164.04L836.36 1092.04Z" />
		<path id="Path 5" class="shp3" d="M417.27 138.33L332 138.33L332 208.48L417.27 208.48L462.91 208.48L478.32 208.48L478.32 0L417.27 0L417.27 138.33ZM689.08 1.09L540.38 1.09L540.38 74.11C560.26 96.88 570.61 107.79 599.41 140.71C582.57 140.71 540.38 140.78 540.38 140.78L540.38 207.39L689.08 207.39L689.08 140.78L629.7 74.11L689.08 74.11L689.08 1.09Z" />
	</g>
</svg>